<?xml version="1.0" standalone="no"?><!DOCTYPE svg PUBLIC "-//W3C//DTD SVG 1.1//EN" "http://www.w3.org/Graphics/SVG/1.1/DTD/svg11.dtd"><svg height="1024" node-id="1" sillyvg="true" template-height="1024" template-width="1024" version="1.1" viewBox="0 0 1024 1024" width="1024" xmlns="http://www.w3.org/2000/svg" xmlns:xlink="http://www.w3.org/1999/xlink"><defs node-id="87"></defs><path d="M 263.08 830.91 C 263.08 830.91 125.12 227.52 415.16 188.00 C 819.92 132.92 732.10 444.76 732.10 444.76 C 732.10 444.76 837.94 382.08 938.31 449.76 C 1077.57 543.69 855.38 830.37 855.38 830.37 Z" fill="#f0f8ff" fill-rule="nonzero" node-id="89" stroke="none" target-height="697.99" target-width="952.44995" target-x="125.12" target-y="132.92"></path><path d="M 947.52 249.43 L 948.34 212.97 L 904.78 202.12 C 901.54 201.28 898.92 198.89 897.78 195.74 C 897.12 193.99 896.40 192.26 895.64 190.56 C 894.23 187.50 894.50 183.93 896.36 181.12 L 921.25 144.33 L 896.25 117.75 L 858.02 140.29 C 854.64 142.22 850.52 142.35 847.02 140.64 C 844.66 139.54 842.26 138.53 839.80 137.64 C 836.04 136.31 833.20 133.17 832.27 129.29 L 822.55 85.80 L 786.07 85.80 L 776.26 129.35 C 775.38 133.45 772.54 136.85 768.66 138.45 C 767.04 139.09 765.44 139.78 763.87 140.50 C 760.08 142.18 755.70 141.90 752.15 139.75 L 714.82 117.75 L 689.82 144.33 L 712.82 178.27 C 715.64 182.42 716.17 187.73 714.21 192.35 L 713.70 193.58 C 711.83 198.19 707.77 201.55 702.89 202.52 L 663.16 210.52 L 662.33 247.00 L 704.78 257.57 C 708.70 258.61 711.86 261.49 713.28 265.29 C 713.28 265.35 713.33 265.41 713.35 265.48 C 714.95 269.30 714.55 273.67 712.27 277.13 L 688.80 311.83 L 713.80 338.41 L 749.00 317.64 C 752.42 315.69 756.61 315.64 760.07 317.52 C 762.14 318.59 764.25 319.59 766.40 320.52 C 769.78 321.91 772.29 324.84 773.14 328.39 L 782.32 369.13 L 818.79 369.13 L 827.15 332.06 C 828.07 328.21 831.00 325.16 834.80 324.06 C 838.08 323.03 841.31 321.83 844.47 320.47 C 847.69 319.01 851.41 319.19 854.47 320.94 L 890.64 342.26 L 915.64 315.68 L 894.64 284.68 C 892.32 281.19 892.07 276.72 894.00 273.00 C 895.26 270.44 896.41 267.81 897.45 265.13 C 898.80 261.42 901.96 258.66 905.82 257.82 Z M 818.18 294.38 C 789.81 300.04 761.08 286.47 747.43 260.96 C 733.79 235.46 738.44 204.02 758.89 183.57 C 779.35 163.11 810.78 158.45 836.29 172.09 C 861.80 185.73 875.38 214.46 869.72 242.83 C 864.52 268.84 844.19 289.17 818.18 294.38 Z" fill="#d9ebf9" fill-rule="nonzero" node-id="91" stroke="none" target-height="283.33002" target-width="286.01" target-x="662.33" target-y="85.8"></path><path d="M 263.08 850.91 C 263.08 850.91 -50.12 593.38 25.83 492.17 C 114.04 374.63 260.03 492.17 260.03 492.17 Z" fill="#f0f8ff" fill-rule="nonzero" node-id="93" stroke="none" target-height="476.27997" target-width="313.19998" target-x="-50.12" target-y="374.63"></path><path d="M 272.56 640.18 L 273.24 610.09 L 237.24 601.09 C 234.57 600.39 232.42 598.42 231.49 595.82 C 230.94 594.38 230.35 592.95 229.73 591.55 C 228.56 589.03 228.78 586.08 230.31 583.76 L 250.86 553.40 L 230.25 531.40 L 198.69 550.00 C 195.90 551.60 192.50 551.70 189.62 550.29 C 187.67 549.39 185.69 548.56 183.62 547.80 C 180.51 546.71 178.17 544.11 177.40 540.91 L 169.32 505.03 L 139.30 505.03 L 131.20 541.03 C 130.48 544.41 128.13 547.22 124.93 548.54 C 123.60 549.07 122.28 549.63 120.93 550.23 C 117.80 551.62 114.18 551.39 111.25 549.61 L 80.49 531.49 L 59.88 553.49 L 78.83 581.49 C 81.15 584.90 81.60 589.25 80.00 593.06 L 79.58 594.06 C 78.04 597.86 74.68 600.64 70.66 601.44 L 37.86 608.06 L 37.18 638.16 L 72.18 646.89 C 75.41 647.76 78.01 650.13 79.18 653.26 L 79.24 653.41 C 80.56 656.57 80.23 660.17 78.35 663.03 L 59.00 691.69 L 79.62 713.63 L 108.71 696.48 C 111.54 694.87 114.99 694.84 117.85 696.38 C 119.56 697.27 121.30 698.09 123.07 698.85 C 125.86 700.00 127.93 702.42 128.63 705.35 L 136.22 739.00 L 166.33 739.00 L 173.22 708.41 C 173.98 705.23 176.40 702.70 179.54 701.78 C 182.26 700.92 184.93 699.92 187.54 698.78 C 190.20 697.58 193.27 697.73 195.80 699.18 L 225.66 716.78 L 246.27 694.83 L 228.94 669.21 C 227.06 666.35 226.87 662.70 228.43 659.65 C 229.43 657.54 230.43 655.37 231.28 653.16 C 232.40 650.11 235.01 647.84 238.19 647.16 Z M 165.80 677.28 C 142.39 681.95 118.68 670.74 107.42 649.69 C 96.16 628.63 100.01 602.69 116.89 585.81 C 133.78 568.93 159.72 565.09 180.77 576.35 C 201.82 587.62 213.02 611.33 208.35 634.74 C 204.05 656.21 187.27 672.99 165.80 677.28 Z" fill="#d9ebf9" fill-rule="nonzero" node-id="95" stroke="none" target-height="233.97" target-width="236.06" target-x="37.18" target-y="505.03"></path><path d="M 997.33 892.60 C 997.33 899.06 946.20 905.26 855.18 909.83 C 764.16 914.39 640.72 916.96 512.00 916.96 C 383.28 916.96 259.84 914.39 168.82 909.83 C 77.80 905.26 26.67 899.06 26.67 892.60 C 26.67 886.14 77.80 879.94 168.82 875.37 C 259.84 870.81 383.28 868.24 512.00 868.24 C 640.72 868.24 764.16 870.81 855.18 875.37 C 946.20 879.94 997.33 886.14 997.33 892.60 Z" fill="#bad3e2" fill-rule="nonzero" node-id="97" stroke="none" target-height="48.71997" target-width="970.6599" target-x="26.670013" target-y="868.24"></path><path d="M 599.03 879.45 L 446.02 880.22 L 466.75 862.67 L 446.02 817.36 L 446.02 739.07 L 599.03 739.07 L 602.63 831.18 L 627.38 857.72 L 599.03 879.45 Z" fill="#253369" fill-rule="nonzero" node-id="99" stroke="none" target-height="141.14996" target-width="181.36002" target-x="446.02" target-y="739.07"></path><path d="M 435.22 828.16 L 435.22 828.16 C 429.26 828.14 424.44 823.32 424.42 817.36 L 424.42 749.87 C 424.44 743.91 429.26 739.09 435.22 739.07 L 435.22 739.07 C 441.18 739.09 446.00 743.91 446.02 749.87 L 446.02 817.36 C 446.00 823.32 441.18 828.14 435.22 828.16 Z" fill="#253369" fill-rule="nonzero" node-id="101" stroke="none" target-height="89.089966" target-width="21.599976" target-x="424.42" target-y="739.07"></path><path d="M 492.50 877.07 L 492.50 877.07 C 488.28 881.27 481.45 881.27 477.23 877.07 L 428.10 825.45 C 423.90 821.25 425.30 818.27 429.50 814.08 L 429.50 814.08 C 433.72 809.88 440.55 809.88 444.77 814.08 L 491.90 860.00 C 496.10 864.16 496.69 872.87 492.50 877.07 Z" fill="#253369" fill-rule="nonzero" node-id="103" stroke="none" target-height="71.38776" target-width="72.79001" target-x="423.9" target-y="809.88116"></path><path d="M 484.27 880.22 L 364.58 880.22 C 358.39 880.20 353.37 875.19 353.34 869.00 L 353.34 869.00 C 353.36 862.80 358.38 857.77 364.58 857.75 L 484.27 857.75 C 490.47 857.77 495.49 862.80 495.51 869.00 L 495.51 869.00 C 495.48 875.19 490.46 880.20 484.27 880.22 Z" fill="#253369" fill-rule="nonzero" node-id="105" stroke="none" target-height="22.46997" target-width="142.17001" target-x="353.34" target-y="857.75"></path><path d="M 597.20 827.77 L 597.20 827.77 C 591.25 827.75 586.43 822.95 586.40 817.00 L 586.40 749.48 C 586.42 743.52 591.24 738.70 597.20 738.69 L 597.20 738.69 C 603.16 738.70 607.99 743.52 608.00 749.48 L 608.00 817.00 C 607.97 822.95 603.15 827.76 597.20 827.77 Z" fill="#253369" fill-rule="nonzero" node-id="107" stroke="none" target-height="89.079956" target-width="21.599976" target-x="586.4" target-y="738.69"></path><path d="M 654.47 876.68 L 654.47 876.68 C 650.25 880.88 643.42 880.88 639.20 876.68 L 591.48 829.00 C 587.28 824.78 587.28 817.95 591.48 813.73 L 591.48 813.73 C 595.70 809.53 602.53 809.53 606.75 813.73 L 654.47 860.97 C 658.64 865.37 658.64 872.28 654.47 876.68 Z" fill="#253369" fill-rule="nonzero" node-id="109" stroke="none" target-height="71.34778" target-width="71.362915" target-x="587.2811" target-y="809.5311"></path><path d="M 646.24 879.91 L 526.56 879.91 C 520.36 879.89 515.33 874.86 515.31 868.66 L 515.31 868.66 C 515.33 862.45 520.35 857.43 526.56 857.41 L 646.24 857.41 C 652.44 857.43 657.47 862.46 657.49 868.66 L 657.49 868.66 C 657.47 874.86 652.44 879.89 646.24 879.91 Z" fill="#253369" fill-rule="nonzero" node-id="111" stroke="none" target-height="22.500061" target-width="142.18" target-x="515.31" target-y="857.41"></path><path d="M 810.15 755.08 C 810.16 769.46 798.53 781.13 784.15 781.17 L 236.32 781.17 C 221.92 781.16 210.24 769.48 210.25 755.08 L 210.25 410.54 C 210.25 396.14 221.92 384.47 236.32 384.46 L 784.10 384.46 C 798.47 384.50 810.10 396.17 810.10 410.54 Z" fill="#253369" fill-rule="nonzero" node-id="113" stroke="none" target-height="396.70993" target-width="599.9166" target-x="210.24449" target-y="384.46"></path><path d="M 830.84 755.08 C 830.85 769.46 819.22 781.13 804.84 781.17 L 257.00 781.17 C 242.62 781.13 230.99 769.46 231.00 755.08 L 231.00 410.54 C 230.99 396.17 242.63 384.50 257.00 384.46 L 804.80 384.46 C 819.17 384.50 830.80 396.17 830.80 410.54 Z" fill="#b3d0ff" fill-rule="nonzero" node-id="115" stroke="none" target-height="396.70993" target-width="599.8622" target-x="230.98892" target-y="384.46"></path><path d="M 248.59 404.50 L 809.88 404.50 L 809.88 686.17 L 248.59 686.17 Z" fill="#f0f8ff" fill-rule="nonzero" node-id="117" stroke="none" target-height="281.67004" target-width="561.2901" target-x="248.58998" target-y="404.5"></path><path d="M 799.81 404.50 L 809.88 404.50 L 809.88 686.17 L 799.81 686.17 Z" fill="#cee8ef" fill-rule="nonzero" node-id="119" stroke="none" target-height="281.67004" target-width="10.070068" target-x="799.81" target-y="404.5"></path><path d="M 257.00 781.17 L 804.80 781.17 C 819.18 781.13 830.81 769.46 830.80 755.08 L 830.80 716.00 L 231.00 716.00 L 231.00 755.11 C 231.01 769.48 242.63 781.13 257.00 781.17 Z" fill="#566182" fill-rule="nonzero" node-id="121" stroke="none" target-height="65.16992" target-width="599.8111" target-x="231" target-y="716"></path><path d="M 316.16 511.93 C 316.15 516.93 318.14 521.72 321.67 525.26 C 325.21 528.79 330.00 530.78 335.00 530.77 L 748.56 530.77 C 753.56 530.77 758.35 528.79 761.88 525.25 C 765.42 521.72 767.40 516.93 767.40 511.93 L 767.40 252.57 C 767.40 247.57 765.42 242.78 761.89 239.24 C 758.35 235.71 753.56 233.72 748.56 233.72 L 335.00 233.72 C 330.01 233.72 325.22 235.71 321.69 239.25 C 318.16 242.78 316.18 247.58 316.19 252.57 Z" fill="#4c6ef4" fill-rule="nonzero" node-id="123" stroke="none" target-height="297.05536" target-width="451.24796" target-x="316.1547" target-y="233.71999"></path><path d="M 335.00 233.72 L 748.56 233.72 C 753.56 233.72 758.35 235.71 761.89 239.24 C 765.42 242.78 767.40 247.57 767.40 252.57 L 767.40 287.57 L 316.16 287.57 L 316.16 252.57 C 316.15 247.57 318.13 242.77 321.67 239.24 C 325.20 235.70 330.00 233.71 335.00 233.72 Z" fill="#4c6ef4" fill-rule="nonzero" node-id="125" stroke="none" target-height="53.855347" target-width="451.2506" target-x="316.15204" target-y="233.71466"></path><path d="M 721.73 260.82 C 721.74 265.99 725.93 270.17 731.10 270.17 C 736.26 270.17 740.45 265.97 740.45 260.81 C 740.45 255.64 736.26 251.45 731.09 251.45 C 728.61 251.45 726.22 252.43 724.47 254.19 C 722.71 255.95 721.72 258.34 721.73 260.82 Z" fill="#4c6ef4" fill-rule="nonzero" node-id="127" stroke="none" target-height="18.726334" target-width="18.727112" target-x="721.72473" target-y="251.44734"></path><path d="M 698.09 260.82 C 698.09 265.99 702.28 270.19 707.46 270.19 C 712.63 270.19 716.83 266.00 716.83 260.83 C 716.83 255.65 712.64 251.46 707.47 251.45 C 704.98 251.44 702.60 252.43 700.84 254.19 C 699.08 255.95 698.09 258.33 698.09 260.82 Z" fill="#4c6ef4" fill-rule="nonzero" node-id="129" stroke="none" target-height="18.747131" target-width="18.746338" target-x="698.08734" target-y="251.4447"></path><path d="M 675.30 260.82 C 675.31 265.98 679.50 270.16 684.66 270.15 C 689.82 270.14 694.00 265.96 694.00 260.80 C 694.00 255.64 689.82 251.46 684.66 251.45 C 682.18 251.45 679.79 252.43 678.03 254.19 C 676.28 255.95 675.29 258.34 675.30 260.82 Z" fill="#4c6ef4" fill-rule="nonzero" node-id="131" stroke="none" target-height="18.708176" target-width="18.705322" target-x="675.2947" target-y="251.44734"></path><path d="M 334.38 511.93 C 334.37 516.92 336.35 521.71 339.88 525.25 C 343.41 528.78 348.20 530.77 353.19 530.77 L 766.78 530.77 C 771.78 530.77 776.57 528.79 780.10 525.25 C 783.64 521.72 785.62 516.93 785.62 511.93 L 785.62 252.57 C 785.62 247.57 783.64 242.78 780.11 239.24 C 776.57 235.71 771.78 233.72 766.78 233.72 L 353.19 233.72 C 348.20 233.72 343.41 235.71 339.88 239.25 C 336.35 242.78 334.37 247.58 334.38 252.57 Z" fill="#ffffff" fill-rule="nonzero" node-id="133" stroke="none" target-height="297.05267" target-width="451.2507" target-x="334.37204" target-y="233.71999"></path><path d="M 353.19 233.72 L 766.78 233.72 C 771.78 233.72 776.57 235.71 780.11 239.24 C 783.64 242.78 785.62 247.57 785.62 252.57 L 785.62 287.57 L 334.38 287.57 L 334.38 252.57 C 334.37 247.58 336.35 242.78 339.88 239.25 C 343.41 235.71 348.20 233.72 353.19 233.72 Z" fill="#c9e1f9" fill-rule="nonzero" node-id="135" stroke="none" target-height="53.85002" target-width="451.2507" target-x="334.37204" target-y="233.71999"></path><path d="M 740.00 260.82 C 740.01 265.99 744.20 270.17 749.37 270.17 C 754.53 270.17 758.72 265.97 758.72 260.81 C 758.72 255.64 754.53 251.45 749.36 251.45 C 746.87 251.45 744.49 252.43 742.74 254.19 C 740.98 255.95 739.99 258.34 740.00 260.82 Z" fill="#969924" fill-rule="nonzero" node-id="137" stroke="none" target-height="18.726334" target-width="18.727112" target-x="739.9947" target-y="251.44734"></path><path d="M 716.31 260.82 C 716.31 265.99 720.50 270.19 725.68 270.19 C 730.85 270.19 735.05 266.00 735.05 260.83 C 735.05 255.65 730.86 251.46 725.69 251.45 C 723.20 251.44 720.82 252.43 719.05 254.19 C 717.30 255.95 716.31 258.33 716.31 260.82 Z" fill="#fec000" fill-rule="nonzero" node-id="139" stroke="none" target-height="18.747131" target-width="18.746338" target-x="716.3073" target-y="251.4447"></path><path d="M 693.52 260.82 C 693.53 265.98 697.72 270.16 702.88 270.15 C 708.04 270.14 712.22 265.96 712.22 260.80 C 712.22 255.64 708.04 251.46 702.88 251.45 C 700.39 251.45 698.01 252.43 696.26 254.19 C 694.50 255.95 693.51 258.34 693.52 260.82 Z" fill="#dc4026" fill-rule="nonzero" node-id="141" stroke="none" target-height="18.708176" target-width="18.7052" target-x="693.5147" target-y="251.44734"></path><path d="M 622.97 395.37 C 622.97 438.30 588.16 473.10 545.24 473.10 C 502.31 473.10 467.51 438.30 467.51 395.37 C 467.51 352.44 502.31 317.64 545.24 317.64 C 588.16 317.64 622.97 352.44 622.97 395.37 Z" fill="#ffffff" fill-rule="nonzero" hidden="true" node-id="143" stroke="none" target-height="155.46002" target-width="155.45999" target-x="467.50577" target-y="317.64246" visibility="hidden"></path><path d="M 546.00 348.69 C 547.14 353.87 545.04 359.22 540.69 362.25 C 536.34 365.29 530.59 365.40 526.12 362.54 C 521.66 359.68 519.35 354.41 520.29 349.19 C 521.22 343.97 525.21 339.82 530.39 338.69 C 537.46 337.14 544.45 341.62 546.00 348.69 Z" fill="#8d8dfc" fill-rule="nonzero" hidden="true" node-id="145" stroke="none" target-height="28.254456" target-width="27.780457" target-x="519.3548" target-y="337.14166" visibility="hidden"></path><path d="M 585.64 355.23 C 587.40 363.25 582.32 371.18 574.30 372.94 C 566.28 374.70 558.35 369.62 556.59 361.60 C 554.83 353.58 559.91 345.65 567.93 343.89 C 571.78 343.05 575.81 343.77 579.13 345.89 C 582.45 348.02 584.80 351.38 585.64 355.23 Z" fill="#7d7cfd" fill-rule="nonzero" hidden="true" node-id="147" stroke="none" target-height="31.653534" target-width="32.56775" target-x="554.8312" target-y="343.04526" visibility="hidden"></path><path d="M 516.00 369.42 C 517.09 374.32 515.12 379.39 511.01 382.26 C 506.90 385.14 501.46 385.26 497.23 382.56 C 493.00 379.87 490.81 374.89 491.68 369.95 C 492.55 365.01 496.31 361.09 501.21 360.00 C 507.90 358.52 514.52 362.73 516.00 369.42 Z" fill="#a2a2fc" fill-rule="nonzero" hidden="true" node-id="149" stroke="none" target-height="26.741516" target-width="26.274323" target-x="490.8121" target-y="358.5176" visibility="hidden"></path><path d="M 506.62 404.40 C 507.62 408.94 505.78 413.64 501.96 416.30 C 498.14 418.96 493.10 419.06 489.18 416.55 C 485.27 414.04 483.25 409.42 484.07 404.84 C 484.89 400.26 488.39 396.62 492.93 395.63 C 499.13 394.27 505.26 398.20 506.62 404.40 Z" fill="#b2b2f9" fill-rule="nonzero" hidden="true" node-id="151" stroke="none" target-height="24.78366" target-width="24.36972" target-x="483.2472" target-y="394.27356" visibility="hidden"></path><path d="M 526.00 436.00 C 527.29 441.93 523.52 447.79 517.59 449.08 C 511.66 450.37 505.81 446.62 504.51 440.69 C 503.20 434.76 506.95 428.90 512.88 427.59 C 515.74 426.96 518.72 427.49 521.19 429.07 C 523.65 430.65 525.38 433.14 526.00 436.00 Z" fill="#c5c5fc" fill-rule="nonzero" hidden="true" node-id="153" stroke="none" target-height="23.412628" target-width="24.08194" target-x="503.20474" target-y="426.96" visibility="hidden"></path><path d="M 561.39 443.47 C 562.20 447.11 560.74 450.88 557.68 453.02 C 554.63 455.16 550.59 455.25 547.44 453.25 C 544.29 451.25 542.66 447.55 543.31 443.87 C 543.95 440.20 546.75 437.28 550.39 436.47 C 555.36 435.37 560.29 438.50 561.39 443.47 Z" fill="#d4d4fc" fill-rule="nonzero" hidden="true" node-id="155" stroke="none" target-height="19.885529" target-width="19.53601" target-x="542.66315" target-y="435.3657" visibility="hidden"></path><path d="M 588.65 424.08 C 589.22 426.67 588.17 429.35 585.99 430.87 C 583.82 432.39 580.94 432.44 578.71 431.01 C 576.47 429.58 575.32 426.95 575.79 424.33 C 576.25 421.72 578.25 419.65 580.84 419.08 C 582.54 418.70 584.32 419.02 585.78 419.96 C 587.25 420.89 588.28 422.38 588.65 424.08 Z" fill="#e6e6ff" fill-rule="nonzero" hidden="true" node-id="157" stroke="none" target-height="13.741272" target-width="13.901428" target-x="575.31824" target-y="418.70258" visibility="hidden"></path><path d="M 531.24 397.44 L 531.24 397.38 C 529.03 396.47 527.92 395.00 527.93 392.97 C 527.90 391.53 528.56 390.16 529.70 389.28 C 531.01 388.27 532.64 387.75 534.30 387.83 C 535.94 387.74 537.56 388.22 538.89 389.19 C 539.99 390.01 540.63 391.31 540.60 392.68 C 540.60 394.80 539.37 396.35 536.93 397.35 L 536.93 397.35 C 538.12 397.66 539.18 398.33 539.98 399.26 C 540.69 400.10 541.08 401.16 541.07 402.26 C 541.12 403.82 540.41 405.31 539.17 406.26 C 537.62 407.34 535.76 407.86 533.88 407.75 C 532.18 407.83 530.51 407.32 529.15 406.29 C 527.97 405.38 527.29 403.95 527.34 402.46 C 527.34 400.23 528.65 398.53 531.24 397.44 Z M 534.08 399.06 C 532.28 399.77 531.38 400.86 531.38 402.32 C 531.36 403.00 531.67 403.64 532.21 404.06 C 532.77 404.53 533.48 404.77 534.21 404.75 C 534.96 404.78 535.69 404.54 536.27 404.08 C 536.79 403.64 537.08 402.98 537.05 402.30 C 537.06 400.82 536.07 399.74 534.08 399.06 Z M 536.60 393.06 C 536.62 392.47 536.39 391.90 535.97 391.49 C 535.51 391.08 534.91 390.87 534.30 390.90 C 533.68 390.88 533.08 391.10 532.62 391.51 C 532.18 391.91 531.93 392.48 531.95 393.08 C 531.95 394.29 532.73 395.20 534.27 395.82 C 535.82 395.18 536.60 394.25 536.60 393.05 Z" fill="#7d7cfd" fill-rule="nonzero" hidden="true" node-id="159" stroke="none" target-height="20.118835" target-width="13.828186" target-x="527.2913" target-y="387.74408" visibility="hidden"></path><path d="M 550.00 407.83 C 545.39 407.83 543.09 404.60 543.09 398.13 C 543.09 394.78 543.72 392.22 544.96 390.47 C 546.19 388.72 548.23 387.72 550.37 387.83 C 554.87 387.83 557.12 391.12 557.12 397.69 C 557.12 400.96 556.50 403.46 555.28 405.21 C 554.09 406.94 552.09 407.93 550.00 407.83 Z M 550.18 391.08 C 548.35 391.08 547.42 393.39 547.42 398.02 C 547.42 402.38 548.32 404.56 550.14 404.56 C 551.96 404.56 552.78 402.32 552.78 397.82 C 552.78 393.32 551.88 391.08 550.15 391.08 Z" fill="#7d7cfd" fill-rule="nonzero" hidden="true" node-id="161" stroke="none" target-height="20.20456" target-width="14.029968" target-x="543.09" target-y="387.72064" visibility="hidden"></path><path d="M 563.80 398.00 C 562.56 398.05 561.35 397.58 560.48 396.70 C 559.61 395.74 559.15 394.47 559.22 393.18 C 559.14 391.78 559.62 390.40 560.56 389.35 C 561.50 388.39 562.80 387.87 564.14 387.93 C 565.39 387.86 566.61 388.33 567.49 389.21 C 568.34 390.21 568.77 391.50 568.69 392.81 C 568.77 394.20 568.29 395.56 567.36 396.60 C 566.43 397.55 565.13 398.06 563.80 398.00 Z M 577.92 388.21 L 565.32 407.54 L 562.00 407.54 L 574.56 388.21 Z M 564.06 390.31 C 562.75 390.31 562.06 391.22 562.06 393.04 C 562.06 394.86 562.68 395.63 563.94 395.63 C 565.20 395.63 565.85 394.74 565.85 392.94 C 565.85 391.14 565.27 390.26 564.06 390.26 Z M 575.84 407.80 C 574.60 407.85 573.39 407.38 572.52 406.50 C 571.65 405.54 571.19 404.27 571.26 402.98 C 571.18 401.58 571.66 400.20 572.60 399.15 C 573.54 398.19 574.84 397.68 576.18 397.74 C 577.43 397.67 578.65 398.13 579.54 399.00 C 580.38 400.00 580.81 401.28 580.73 402.59 C 580.80 403.98 580.33 405.35 579.40 406.39 C 578.46 407.33 577.17 407.83 575.84 407.75 Z M 576.05 400.11 C 574.75 400.11 574.11 401.02 574.11 402.85 C 574.11 404.68 574.73 405.43 576.00 405.43 C 577.27 405.43 577.92 404.53 577.92 402.74 C 577.97 402.05 577.78 401.37 577.40 400.80 C 577.11 400.34 576.60 400.06 576.05 400.06 Z" fill="#7d7cfd" fill-rule="nonzero" hidden="true" node-id="163" stroke="none" target-height="19.99173" target-width="21.66919" target-x="559.142" target-y="387.86157" visibility="hidden"></path><path d="M 368.69 469.59 L 743.78 469.59 L 743.78 485.24 L 368.69 485.24 Z" fill="#b3d0ff" fill-rule="nonzero" node-id="165" stroke="none" target-height="15.649933" target-width="375.09003" target-x="368.69" target-y="469.59003"></path><path d="M 368.69 469.59 L 578.86 469.59 L 578.86 485.24 L 368.69 485.24 Z" fill="#5a88db" fill-rule="nonzero" node-id="167" stroke="none" target-height="15.649933" target-width="210.16998" target-x="368.69" target-y="469.59003"></path><g node-id="262"><path d="M 961.45 842.62 L 658.68 842.62 L 658.68 727.32 L 961.45 727.32 Z" fill="#f19f22" fill-rule="nonzero" group-id="1" node-id="171" stroke="none" target-height="115.29993" target-width="302.77002" target-x="658.68" target-y="727.32025"></path></g><path d="M 961.45 727.32 L 809.64 612.25 L 658.68 727.32 L 961.45 727.32 Z" fill="#f2cc14" fill-rule="nonzero" node-id="174" stroke="none" target-height="115.07001" target-width="302.77002" target-x="658.68" target-y="612.25"></path><path d="M 926.90 865.39 L 692.80 865.39 C 689.38 865.37 686.62 862.61 686.61 859.19 L 686.61 682.70 L 732.61 637.60 L 926.90 637.60 C 930.32 637.61 933.08 640.37 933.09 643.79 L 933.09 859.19 C 933.08 862.61 930.32 865.38 926.90 865.39 Z" fill="#d6e6f2" fill-rule="nonzero" node-id="176" stroke="none" target-height="227.79004" target-width="246.48004" target-x="686.61" target-y="637.6"></path><path d="M 732.61 637.60 L 732.61 682.71 L 686.61 682.71 L 732.61 637.60 Z" fill="#bdd6e5" fill-rule="nonzero" node-id="178" stroke="none" target-height="45.110046" target-width="46" target-x="686.61" target-y="637.6"></path><path d="M 810.13 828.36 L 961.34 727.31 L 961.61 860.05 C 961.61 872.56 951.98 882.72 940.03 882.75 L 680.46 883.33 C 668.46 883.33 658.81 873.24 658.78 860.73 L 658.68 727.31 Z" fill="#fbb433" fill-rule="nonzero" node-id="180" stroke="none" target-height="156.02002" target-width="302.93" target-x="658.68" target-y="727.31"></path><path d="M 940.03 882.75 L 810.15 776.34 L 680.46 883.33 L 940.03 882.75 Z" fill="#e08b03" fill-rule="nonzero" node-id="182" stroke="none" target-height="106.98999" target-width="259.57" target-x="680.46" target-y="776.34"></path><path d="M 909.78 701.67 L 712.94 701.67 C 710.72 701.66 708.92 699.88 708.89 697.67 L 708.89 697.67 C 708.90 695.43 710.70 693.62 712.94 693.61 L 909.78 693.61 C 912.02 693.62 913.82 695.43 913.83 697.67 L 913.83 697.67 C 913.80 699.88 912.00 701.66 909.78 701.67 Z" fill="#ffffff" fill-rule="nonzero" node-id="184" stroke="none" target-height="8.059937" target-width="204.94" target-x="708.8901" target-y="693.61"></path><path d="M 909.78 721.76 L 712.94 721.76 C 710.70 721.75 708.90 719.94 708.89 717.70 L 708.89 717.70 C 708.90 715.46 710.70 713.65 712.94 713.64 L 909.78 713.64 C 912.02 713.65 913.82 715.46 913.83 717.70 L 913.83 717.70 C 913.82 719.94 912.02 721.75 909.78 721.76 Z" fill="#ffffff" fill-rule="nonzero" node-id="186" stroke="none" target-height="8.119995" target-width="204.94" target-x="708.8901" target-y="713.64"></path><path d="M 909.78 741.84 L 712.94 741.84 C 710.70 741.83 708.90 740.02 708.89 737.78 L 708.89 737.78 C 708.92 735.57 710.72 733.79 712.94 733.78 L 909.78 733.78 C 912.00 733.79 913.80 735.57 913.83 737.78 L 913.83 737.78 C 913.82 740.02 912.02 741.83 909.78 741.84 Z" fill="#ffffff" fill-rule="nonzero" node-id="188" stroke="none" target-height="8.059937" target-width="204.94" target-x="708.8901" target-y="733.78"></path><path d="M 475.44 183.50 L 544.82 185.49 L 507.98 259.57 L 475.44 183.50 Z" fill="#ffa60e" fill-rule="nonzero" node-id="190" stroke="none" target-height="76.07001" target-width="69.380005" target-x="475.44" target-y="183.5"></path><path d="M 785.53 423.16 L 782.38 353.83 L 858.99 385.10 L 785.53 423.16 Z" fill="#82a816" fill-rule="nonzero" node-id="192" stroke="none" target-height="69.33005" target-width="76.609985" target-x="782.38" target-y="353.82996"></path><path d="M 115.73 675.07 C 111.46 675.09 107.46 673.01 105.02 669.51 C 102.58 666.00 102.01 661.53 103.50 657.53 C 104.24 655.53 121.50 609.74 124.82 601.26 L 149.20 611.14 C 147.34 615.91 140.64 633.99 135.25 648.55 L 144.20 647.55 L 147.00 673.49 L 117.14 675.00 C 116.67 675.06 116.20 675.08 115.73 675.08 Z" fill="#616ac1" fill-rule="nonzero" node-id="194" stroke="none" target-height="73.82593" target-width="47.190437" target-x="102.00956" target-y="601.26"></path><path d="M 330.06 610.73 L 321.05 578.53 L 108.80 635.23 L 117.81 667.43 L 330.06 610.73 Z" fill="#367cff" fill-rule="nonzero" node-id="196" stroke="none" target-height="88.89996" target-width="221.26" target-x="108.8" target-y="578.53"></path><g node-id="263"><path d="M 330.06 610.73 L 321.05 578.53 L 108.80 635.23 L 117.81 667.43 L 330.06 610.73 Z" fill="#ffffff" fill-opacity="0.5" fill-rule="nonzero" group-id="2" node-id="200" stroke="none" target-height="88.89996" target-width="221.26" target-x="108.8" target-y="578.53"></path></g><g node-id="264"><path d="M 85.54 641.73 L 108.83 635.22 L 117.84 667.42 L 94.55 673.94 Z" fill="#262626" fill-rule="nonzero" group-id="3" node-id="205" stroke="none" target-height="38.720764" target-width="32.304993" target-x="85.53577" target-y="635.21564"></path></g><path d="M 330.06 610.73 C 330.06 610.73 336.18 603.88 341.63 597.73 C 345.96 592.85 349.88 588.40 350.00 588.16 C 350.12 587.92 344.24 585.92 337.74 583.82 C 329.85 581.27 321.05 578.54 321.05 578.54 Z" fill="#367cff" fill-rule="nonzero" node-id="208" stroke="none" target-height="32.190002" target-width="29.069977" target-x="321.05" target-y="578.54"></path><g node-id="265"><path d="M 330.06 610.73 C 330.06 610.73 336.18 603.88 341.63 597.73 C 345.96 592.85 349.88 588.40 350.00 588.16 C 350.12 587.92 344.24 585.92 337.74 583.82 C 329.85 581.27 321.05 578.54 321.05 578.54 Z" fill="#ffffff" fill-opacity="0.9" fill-rule="nonzero" group-id="4" node-id="212" stroke="none" target-height="32.190002" target-width="29.069977" target-x="321.05" target-y="578.54"></path></g><path d="M 341.63 597.72 C 345.96 592.84 349.88 588.39 350.00 588.15 C 350.12 587.91 344.24 585.91 337.74 583.81 Z" fill="#262626" fill-rule="nonzero" node-id="215" stroke="none" target-height="13.909973" target-width="12.379974" target-x="337.74" target-y="583.81"></path><path d="M 327.19 600.72 L 114.88 656.82 L 115.29 658.29 L 327.60 602.19 L 327.19 600.72 Z" fill="#ffffff" fill-rule="nonzero" node-id="217" stroke="none" target-height="57.570007" target-width="212.72" target-x="114.88" target-y="600.72"></path><path d="M 323.68 588.12 L 111.36 644.22 L 111.77 645.69 L 324.08 589.59 L 323.68 588.12 Z" fill="#ffffff" fill-rule="nonzero" node-id="219" stroke="none" target-height="57.570007" target-width="212.71999" target-x="111.36" target-y="588.12"></path><path d="M 143.40 876.00 C 143.40 876.00 145.54 887.11 155.94 887.73 C 166.34 888.35 164.09 896.63 164.09 896.63 L 124.34 896.63 L 124.34 876.74 Z" fill="#367cff" fill-rule="nonzero" node-id="221" stroke="none" target-height="20.629944" target-width="42" target-x="124.34" target-y="876"></path><path d="M 131.14 673.29 C 131.14 673.29 131.26 669.95 131.23 677.53 C 131.14 705.79 130.65 738.07 129.45 756.96 C 127.52 787.32 122.58 883.06 122.58 883.06 L 148.71 882.84 L 174.00 672.14 L 131.12 673.29 Z" fill="#2c669b" fill-rule="nonzero" node-id="223" stroke="none" target-height="213.10999" target-width="51.42" target-x="122.58" target-y="669.95"></path><path d="M 160.64 706.61 C 160.64 706.61 161.72 727.12 161.92 731.94 C 162.38 743.07 162.54 754.60 162.54 767.67 L 166.66 733.41 C 166.66 733.41 163.65 722.67 160.64 706.61 Z" fill="#253369" fill-rule="nonzero" node-id="225" stroke="none" target-height="61.059937" target-width="6.0200043" target-x="160.64" target-y="706.61"></path><path d="M 189.90 876.00 C 189.90 876.00 192.05 887.11 202.45 887.73 C 212.85 888.35 210.60 896.63 210.60 896.63 L 170.84 896.63 L 170.84 876.74 Z" fill="#367cff" fill-rule="nonzero" node-id="227" stroke="none" target-height="20.629944" target-width="42.01001" target-x="170.84" target-y="876"></path><path d="M 202.55 675.48 C 202.55 675.48 204.87 772.07 204.55 776.79 L 194.83 882.33 L 169.14 882.80 L 171.62 773.00 C 171.62 773.00 169.86 742.71 162.54 714.58 C 158.79 700.14 156.54 685.36 155.81 670.46 L 155.81 670.46 L 202.55 675.51 Z" fill="#2c669b" fill-rule="nonzero" node-id="229" stroke="none" target-height="212.33997" target-width="49.059998" target-x="155.81" target-y="670.46"></path><path d="M 130.85 673.29 L 130.77 673.29 C 130.77 673.29 130.83 671.64 130.85 673.29 Z" fill="#333333" fill-rule="nonzero" node-id="231" stroke="none" target-height="1.6499634" target-width="0.08000183" target-x="130.77" target-y="671.64"></path><path d="M 206.23 621.87 C 205.69 628.20 203.07 667.69 202.55 675.48 L 131.17 675.48 C 130.76 668.48 130.69 637.99 129.17 624.24 C 127.71 611.12 123.11 604.24 125.17 600.39 C 128.60 594.05 137.97 590.39 144.36 589.52 C 148.27 588.99 154.14 588.61 154.14 588.61 C 154.14 588.61 154.63 598.67 166.49 599.23 C 182.62 599.99 181.49 588.61 181.62 588.61 C 184.24 588.61 198.69 590.09 201.87 592.91 C 210.42 600.47 207.34 608.46 206.20 621.91 Z" fill="#616ac1" fill-rule="nonzero" node-id="233" stroke="none" target-height="86.869995" target-width="87.31" target-x="123.11" target-y="588.61"></path><g node-id="266"><path d="M 190.16 587.75 C 190.08 587.75 187.89 595.98 170.80 594.69 C 158.97 593.81 156.08 585.76 155.80 585.76 C 157.12 585.56 158.43 585.27 159.72 584.90 C 161.70 583.99 163.14 582.20 163.62 580.07 C 164.15 578.02 164.42 570.15 164.42 566.20 L 182.63 570.29 C 182.38 574.74 180.63 585.07 186.82 586.90 C 187.82 587.20 188.97 587.48 190.15 587.75 Z" fill="#ff9e85" fill-rule="nonzero" group-id="5" node-id="236" stroke="none" target-height="29.779968" target-width="34.359985" target-x="155.8" target-y="566.2"></path></g><path d="M 182.00 579.05 C 174.82 579.61 165.60 576.58 163.85 567.05 L 162.27 558.41 C 160.52 548.84 164.13 540.15 173.15 538.50 L 173.15 538.50 C 182.15 536.86 190.32 543.39 192.07 552.96 L 192.77 556.79 C 193.44 560.46 194.77 578.08 182.00 579.09 Z" fill="#ff9e85" fill-rule="nonzero" node-id="239" stroke="none" target-height="42.75" target-width="34.25" target-x="160.52" target-y="536.86"></path><path d="M 188.66 570.26 C 187.38 563.78 186.78 559.47 186.85 554.91 C 188.19 552.32 188.52 549.32 187.78 546.50 C 189.03 547.29 190.50 547.66 191.97 547.57 C 191.97 547.57 188.97 535.57 178.77 532.29 C 176.90 531.56 172.11 530.64 165.77 531.51 C 160.36 532.25 147.03 536.29 145.13 551.30 L 145.13 551.30 C 145.06 551.80 143.79 565.62 141.23 572.30 C 137.80 581.22 132.99 583.99 133.11 594.30 C 133.27 607.53 157.60 609.30 172.28 608.30 C 186.96 607.30 195.15 602.48 195.28 592.94 C 195.40 582.25 191.28 583.25 188.71 570.30 Z" fill="#0a0a0a" fill-rule="nonzero" node-id="241" stroke="none" target-height="78.65997" target-width="62.40999" target-x="132.99" target-y="530.64"></path><path d="M 273.21 625.24 L 280.26 615.14 C 280.58 614.71 281.07 614.42 281.61 614.35 C 282.14 614.28 282.69 614.43 283.11 614.77 C 283.89 615.46 284.02 616.62 283.40 617.46 L 281.89 619.62 L 289.77 615.00 C 290.63 614.47 292.04 614.38 292.57 615.39 C 293.04 616.16 292.91 617.16 292.26 617.79 C 292.26 617.79 292.26 617.79 292.26 617.79 C 292.26 617.79 292.26 617.79 292.26 617.79 L 293.60 616.97 C 294.10 616.68 294.71 616.63 295.25 616.82 C 295.80 617.01 296.24 617.43 296.45 617.97 C 296.75 618.86 296.38 619.84 295.57 620.32 L 295.00 620.66 C 295.01 620.68 295.01 620.71 295.00 620.73 C 295.91 620.42 296.90 620.82 297.34 621.67 C 297.81 622.62 297.46 623.76 296.55 624.29 L 295.14 625.15 C 295.20 625.15 295.25 625.18 295.28 625.23 C 295.28 625.26 295.28 625.30 295.28 625.33 C 296.15 625.30 296.94 625.85 297.23 626.67 C 297.50 627.56 297.12 628.51 296.32 628.98 L 284.40 636.25 C 280.98 638.35 276.62 638.16 273.40 635.76 L 273.40 635.76 C 270.59 633.67 269.94 629.72 271.95 626.85 L 273.13 625.17 Z" fill="#ff9e85" fill-rule="nonzero" node-id="243" stroke="none" target-height="24.072388" target-width="27.863983" target-x="269.94485" target-y="614.28143"></path><g node-id="267"><path d="M 284.49 622.41 C 284.54 622.49 284.65 622.52 284.73 622.47 L 292.22 618.06 C 292.30 618.01 292.33 617.90 292.28 617.82 C 292.26 617.78 292.22 617.75 292.18 617.73 C 292.13 617.72 292.08 617.73 292.04 617.75 L 284.55 622.16 C 284.51 622.18 284.47 622.22 284.46 622.27 C 284.45 622.32 284.46 622.37 284.48 622.41 Z" fill="#0c0c0c" fill-opacity="0.2" fill-rule="nonzero" group-id="6" node-id="247" stroke="none" target-height="4.7977295" target-width="7.878296" target-x="284.44855" target-y="617.7191"></path></g><g node-id="268"><path d="M 286.34 625.77 C 286.39 625.85 286.50 625.87 286.58 625.83 L 294.94 620.91 C 295.02 620.85 295.05 620.75 295.00 620.66 C 294.95 620.58 294.84 620.55 294.76 620.60 L 286.40 625.52 C 286.36 625.54 286.33 625.58 286.32 625.63 C 286.31 625.67 286.31 625.72 286.34 625.76 Z" fill="#0c0c0c" fill-opacity="0.2" fill-rule="nonzero" group-id="7" node-id="252" stroke="none" target-height="5.3187866" target-width="8.741119" target-x="286.30685" target-y="620.55316"></path></g><g node-id="269"><path d="M 288.32 629.41 C 288.38 629.49 288.48 629.52 288.57 629.47 L 295.23 625.55 C 295.27 625.53 295.31 625.49 295.32 625.44 C 295.33 625.39 295.32 625.34 295.30 625.30 C 295.24 625.22 295.14 625.19 295.05 625.24 L 288.38 629.16 C 288.30 629.22 288.27 629.32 288.32 629.41 Z" fill="#0c0c0c" fill-opacity="0.2" fill-rule="nonzero" group-id="8" node-id="257" stroke="none" target-height="4.325989" target-width="7.0594177" target-x="288.27203" target-y="625.192"></path></g><path d="M 204.56 596.00 L 234.16 640.37 L 271.53 618.70 L 285.00 640.75 L 237.15 671.50 C 230.76 675.59 222.27 673.81 218.06 667.50 L 217.88 667.24 L 180.88 611.75 L 204.58 595.95 Z" fill="#616ac1" fill-rule="nonzero" node-id="260" stroke="none" target-height="79.63721" target-width="104.12001" target-x="180.87999" target-y="595.95"></path></svg>